{"accessors" : [{"bufferView" : 0, "byteOffset" : 0, "componentType" : 5123, "count" : 396, "type" : "SCALAR", "max" : [395], "min" : [0]}, {"bufferView" : 1, "byteOffset" : 0, "componentType" : 5126, "count" : 396, "type" : "VEC3", "max" : [7.662647247314453, 1.4016680717468262, 10.50532341003418], "min" : [-4.019943714141846, -1.25919771194458, -1], "name" : "POSITION"}, {"bufferView" : 1, "byteOffset" : 12, "componentType" : 5126, "count" : 396, "type" : "VEC3", "max" : [0.9944813847541809, 0.9961323142051697, 0.9940546751022339], "min" : [-0.9944813847541809, -0.9970744848251343, -1.0000044107437134], "name" : "NORMAL"}, {"bufferView" : 0, "byteOffset" : 792, "componentType" : 5123, "count" : 1200, "type" : "SCALAR", "max" : [1199], "min" : [0]}, {"bufferView" : 2, "byteOffset" : 0, "componentType" : 5126, "count" : 1200, "type" : "VEC3", "max" : [9.380258560180664, 5.907948017120361, 16.748241424560547], "min" : [-8.6797456741333, -5.715418338775635, 3.859644651412964], "name" : "POSITION"}, {"bufferView" : 2, "byteOffset" : 12, "componentType" : 5126, "count" : 1200, "type" : "VEC3", "max" : [0.9930084943771362, 0.984070360660553, 0.9728905558586121], "min" : [-0.9986689686775208, -0.9793846011161804, -0.9990124702453613], "name" : "NORMAL"}], "asset" : {"generator" : "Aspose.3D 24.9.1", "version" : "2.0"}, "buffers" : [{"uri" : "data:application/octet-stream;base64,", "byteLength" : 41508}], "bufferViews" : [{"buffer" : 0, "byteOffset" : 0, "byteLength" : 3192, "target" : 34963}, {"buffer" : 0, "byteOffset" : 3196, "byteLength" : 9504, "byteStride" : 24, "target" : 34962}, {"buffer" : 0, "byteOffset" : 12704, "byteLength" : 28800, "byteStride" : 24, "target" : 34962}], "materials" : [{"name" : "OakTreeTrunk", "pbrMetallicRoughness" : {"baseColorFactor" : [0.8, 0.8, 0.8, 1], "metallicFactor" : 1, "roughnessFactor" : 1}, "emissiveFactor" : [0, 0, 0], "alphaMode" : "OPAQUE", "doubleSided" : false}, {"name" : "OakTreeLeaf", "pbrMetallicRoughness" : {"baseColorFactor" : [0.8, 0.8, 0.8, 1], "metallicFactor" : 1, "roughnessFactor" : 1}, "emissiveFactor" : [0, 0, 0], "alphaMode" : "OPAQUE", "doubleSided" : false}], "meshes" : [{"primitives" : [{"attributes" : {"POSITION" : 1, "NORMAL" : 2}, "indices" : 0, "material" : 0, "mode" : 4}, {"attributes" : {"POSITION" : 4, "NORMAL" : 5}, "indices" : 3, "material" : 1, "mode" : 4}], "name" : "Cube.002"}], "nodes" : [{"matrix" : [54.01942825317383, 0, 0, 0, 0, -8.80088196005232E-06, -54.01942825317311, 0, 0, 54.01942825317311, -8.80088196005232E-06, 0, -871.7308349609375, 57.153160095214844, 1627.0487060546875, 1], "mesh" : 0, "name" : "OakTree1"}], "scene" : 0, "scenes" : [{"nodes" : [0]}]}